<svg width="32" height="32" viewBox="0 0 32 32" fill="none" xmlns="http://www.w3.org/2000/svg">
<path d="M2.34384 16.0515V15.9523C2.34384 15.921 2.36822 15.8931 2.40145 15.8892C3.37365 15.7734 4.10734 15.4574 4.59745 14.9191C5.0878 14.3805 5.32619 13.6284 5.32619 12.6574V9.04066C5.32619 7.95755 5.5201 7.21187 5.93919 6.73637C6.35652 6.26287 7.42874 6.04393 8.38076 6.04393H8.80012C8.90327 6.04393 8.98689 5.96031 8.98689 5.85716V4.18687C8.98689 4.08372 8.90327 4.0001 8.80012 4.0001H7.7562C6.14184 4.0001 4.94147 4.37946 4.1453 5.169C3.34902 5.95863 2.96841 7.14726 2.96841 8.74033V11.8141C2.96841 12.8775 2.78812 13.5729 2.36061 14.0082C1.93318 14.4435 1.24415 14.6334 0.18698 14.647C0.085328 14.6483 0 14.7305 0 14.8345V17.1691C0 17.2731 0.0853278 17.3554 0.18698 17.3567C1.24415 17.3703 1.93318 17.5602 2.3606 17.9954C2.78812 18.4308 2.96841 19.1262 2.96841 20.1895V23.2577C2.96841 24.8508 3.34851 26.0394 4.14454 26.8291C4.94047 27.6186 6.57332 27.998 8.18867 27.998H8.81323C8.91638 27.998 9 27.9143 9 27.8112V26.1429C9 26.0397 8.91638 25.9561 8.81323 25.9561H8.39387C7.44184 25.9561 6.35652 25.7372 5.93919 25.2637C5.5201 24.7882 5.32619 24.0425 5.32619 22.9594V19.3462C5.32619 18.3763 5.08778 17.6246 4.59742 17.0861C4.1073 16.5478 3.37361 16.2313 2.40139 16.1146C2.36819 16.1106 2.34384 16.0828 2.34384 16.0515Z" fill="black"/>
<path d="M29.6562 15.9522V16.0535C29.6562 16.0848 29.6318 16.1126 29.5986 16.1166C28.6264 16.2333 27.8927 16.5498 27.4026 17.0881C26.9122 17.6266 26.6738 18.3783 26.6738 19.3482V22.9614C26.6738 24.0445 26.4799 24.7902 26.0608 25.2657C25.6435 25.7392 24.5582 25.9581 23.6061 25.9581H23.1868C23.0836 25.9581 23 26.0417 23 26.1449V27.8132C23 27.9163 23.0836 28 23.1868 28H23.8113C25.4267 28 27.0595 27.6206 27.8555 26.831C28.6515 26.0414 29.0316 24.8528 29.0316 23.2597V20.1915C29.0316 19.1281 29.2119 18.4328 29.6394 17.9974C30.0668 17.5622 30.7558 17.3723 31.813 17.3587C31.9147 17.3574 32 17.2751 32 17.1711V14.8345C32 14.7305 31.9147 14.6483 31.813 14.647C30.7558 14.6334 30.0668 14.4435 29.6394 14.0082C29.2119 13.5729 29.0316 12.8775 29.0316 11.8141V8.74033C29.0316 7.14726 28.651 5.95863 27.8547 5.169C27.0585 4.37946 25.4607 4 23.8463 4H23.2218C23.1186 4 23.035 4.08362 23.035 4.18677V5.85508C23.035 5.95823 23.1186 6.04185 23.2218 6.04185H23.6412C24.5932 6.04185 25.6435 6.26088 26.0608 6.73438C26.4799 7.20988 26.6738 7.95556 26.6738 9.03867V12.6574C26.6738 13.6274 26.9122 14.379 27.4026 14.9176C27.8927 15.4559 28.6264 15.7724 29.5986 15.8891C29.6318 15.8931 29.6562 15.9209 29.6562 15.9522Z" fill="black"/>
<path d="M14.9416 18.7395V22.8754C14.9416 22.9785 15.0253 23.0622 15.1284 23.0622H16.8716C16.9747 23.0622 17.0584 22.9785 17.0584 22.8754V18.7414C17.0584 18.686 17.1254 18.6582 17.1646 18.6973L20.0935 21.6196C20.1665 21.6924 20.2845 21.6924 20.3574 21.6196L21.5897 20.3893C21.6628 20.3164 21.6628 20.198 21.5897 20.125L18.6616 17.2017C18.6223 17.1625 18.6501 17.0954 18.7056 17.0954H22.8482C22.9514 17.0954 23.035 17.0117 23.035 16.9086V15.1687C23.035 15.0655 22.9514 14.9819 22.8482 14.9819H18.7074C18.6519 14.9819 18.6242 14.9148 18.6634 14.8756L21.5898 11.9523C21.6628 11.8793 21.6628 11.7609 21.5897 11.688L20.3575 10.4577C20.2845 10.3849 20.1664 10.3849 20.0935 10.4577L17.1646 13.3818C17.1254 13.421 17.0584 13.3932 17.0584 13.3377V9.20187C17.0584 9.09872 16.9747 9.0151 16.8716 9.0151H15.1284C15.0253 9.0151 14.9416 9.09872 14.9416 9.20187V13.3359C14.9416 13.3913 14.8746 13.4191 14.8354 13.38L11.9065 10.4576C11.8335 10.3849 11.7155 10.3849 11.6426 10.4577L10.4103 11.6879C10.3372 11.7609 10.3372 11.8793 10.4103 11.9523L13.3384 14.8756C13.3777 14.9148 13.3499 14.9819 13.2944 14.9819H9.15175C9.0486 14.9819 8.96498 15.0655 8.96498 15.1687V16.9086C8.96498 17.0117 9.0486 17.0954 9.15175 17.0954H13.2926C13.3481 17.0954 13.3758 17.1625 13.3366 17.2017L10.4102 20.125C10.3372 20.198 10.3372 20.3164 10.4103 20.3893L11.6425 21.6196C11.7155 21.6924 11.8336 21.6924 11.9065 21.6196L14.8354 18.6955C14.8746 18.6563 14.9416 18.6841 14.9416 18.7395Z" fill="black"/>
</svg>
